# xmcd
# Track frame offsets:
# 150
# 16046
# 30618
# 44906
# 57898
# 72771
# 86914
# 100374
# 114231
# 129012
# 143144
# 158046
# 172060
# 186614
# 200978
# 214742
# 230541
# 246270
# 261110
# 276520
# 290560
# 303856
# 318085
# 330802
#
# Disc length: 4596 seconds
# Revision: 5
# Processed by: cddbd v1.5.1PL0 Copyright (c) Steve Scherf et al.
# Submitted via: VisiTrax 2.9.10.228 - For more info visit www.synapsa.com
#
DISCID=6311f218
DTITLE=Charlie Poole - Charlie Poole with the North Carolina Ramblers #A
DYEAR=2004
DGENRE=Old Timey
TTITLE0=The Girl I Left in Sunny Tennessee
TTITLE1=I'm the Man that Rode the Mule Around the World
TTITLE2=Can I Sleep In Your Barn Tonight Mister
TTITLE3=Don't Let Your Deal Go Down Blues
TTITLE4=Flyin' Clouds
TTITLE5=Wild Horse
TTITLE6=Forks of Sandy
TTITLE7=Moutain Reel
TTITLE8=Goodbye Booze
TTITLE9=Monkey On A String
TTITLE10=The Brave Engineer
TTITLE11=Too Young To Marry
TTITLE12=Ragtime Annie
TTITLE13=Leaving Home
TTITLE14=Budded Rose
TTITLE15=There'll Come a Time
TTITLE16=White House Blues
TTITLE17=The Highwayman
TTITLE18=Hungry Hash House
TTITLE19=If I Lose, I Don't Care
TTITLE20=You Ain't Talkin' to Me
TTITLE21=From Tennessee
TTITLE22=The Letter That Never Came
TTITLE23=Falling by the Wayside
EXTD=
EXTT0=
EXTT1=
EXTT2=
EXTT3=
EXTT4=
EXTT5=
EXTT6=
EXTT7=
EXTT8=
EXTT9=
EXTT10=
EXTT11=
EXTT12=
EXTT13=
EXTT14=
EXTT15=
EXTT16=
EXTT17=
EXTT18=
EXTT19=
EXTT20=
EXTT21=
EXTT22=
EXTT23=
PLAYORDER=
